<svg xmlns="http://www.w3.org/2000/svg" data-name="Layer 2" viewBox="0 0 572.5 351.46"><g data-name="Layer 1"><path d="M425.31.35c35.08-3.54 68.12 20.13 82.62 51.14-5.43 17.21-13.59 33.44-21.92 49.4-24.31 35.16-49.23 69.88-73.74 104.89-24.27-37.49-49.04-74.69-73.12-112.29 18.93-26.47 38.51-52.82 62.31-75.2 7.18-6.99 16.07-11.68 23.86-17.93Z" style="fill:#5d0808"/><path d="M232.5 8.44C237.73 4.6 243.33-.82 250.37.3c51.08.23 102.18.28 153.26.42 7.21-.19 14.46.42 21.68-.36-7.78 6.25-16.68 10.94-23.86 17.93-23.8 22.38-43.38 48.73-62.31 75.2-40.54 57.31-76.85 117.46-112.03 178.16-15.07 26.24-30.05 52.54-44.36 79.22-.62.13-1.91.44-2.54.59-60.07 0-120.15.08-180.22-.06 55.77-95.06 111.85-190.23 176.98-279.27 17.04-22.42 34.19-45.12 55.53-63.69" style="fill:#d03939"/><path d="M486.01 100.88c8.33-15.96 16.49-32.19 21.92-49.4C529.1 88.1 549.75 125 570.79 161.71c4.58 23.33-.25 48.17-12.19 68.63-11.7 20.18-30.33 35.4-50.65 46.39-47.26-.95-94.51-2.48-141.77-3.48 0-.59.04-1.76.04-2.37 15.35-21.7 30.52-43.53 46.04-65.11 24.52-35.01 49.43-69.73 73.74-104.89Z" style="fill:#9b1613"/></g></svg>