<svg xmlns="http://www.w3.org/2000/svg" data-name="Layer 2" viewBox="0 0 1374.62 273.18"><g data-name="Layer 1"><path d="M289.94.24c23.92-2.41 46.44 13.72 56.33 34.86-3.7 11.73-9.27 22.79-14.95 33.67-16.57 23.97-33.56 47.64-50.27 71.5-16.55-25.56-33.43-50.92-49.85-76.55 12.91-18.04 26.25-36.01 42.48-51.27 4.89-4.76 10.96-7.96 16.26-12.22Z" style="fill:#5d0808"/><path d="M158.5 5.75c3.56-2.62 7.38-6.31 12.18-5.55 34.82.15 69.66.19 104.48.28 4.92-.13 9.86.28 14.78-.25-5.3 4.26-11.37 7.46-16.26 12.22-16.22 15.26-29.57 33.22-42.48 51.27-27.63 39.07-52.39 80.07-76.37 121.45-10.27 17.89-20.48 35.82-30.24 54-.43.09-1.3.3-1.73.4-40.95 0-81.91.05-122.86-.04 38.01-64.78 76.24-129.66 120.64-190.36 11.62-15.28 23.31-30.76 37.86-43.42" style="fill:#d03939"/><path d="M331.32 68.77c5.68-10.88 11.24-21.94 14.95-33.67 14.43 24.96 28.51 50.12 42.85 75.14 3.12 15.9-.17 32.83-8.31 46.79-7.98 13.76-20.68 24.14-34.53 31.62-32.22-.65-64.43-1.69-96.65-2.37 0-.4.03-1.2.03-1.61 10.47-14.79 20.81-29.67 31.39-44.39 16.71-23.86 33.7-47.54 50.27-71.5Z" style="fill:#9b1613"/><text style="font-family:Poppins-Medium,Poppins;font-size:190px;font-weight:500" transform="translate(477.64 162.6)"><tspan x="0" y="0">Apetrape</tspan></text></g></svg>